<svg width="105" height="107" viewBox="0 0 105 107" fill="none" xmlns="http://www.w3.org/2000/svg">
<path fill-rule="evenodd" clip-rule="evenodd" d="M105.516 -61.6636C98.7553 -54.9192 90.3603 -45.6738 87.7018 -35.1803C86.871 -31.9012 86.5999 -28.4987 87.1134 -25.013C86.5534 -22.5456 86.3161 -20.0107 86.4957 -17.4252C86.429 -17.1866 86.3652 -16.9474 86.3044 -16.7075C85.8322 -14.8433 85.5407 -12.9394 85.4715 -11.0029C85.1526 -10.0972 84.8734 -9.18093 84.6388 -8.25493C84.5685 -7.97778 84.5023 -7.69976 84.4402 -7.42088C78.2773 -0.994927 71.58 7.21767 69.2581 16.3823C67.9265 21.6382 68.0327 27.2109 70.503 32.9353C72.9722 38.6569 77.7938 44.508 85.8538 50.3378C104.631 63.9194 122.102 64.6008 135.506 65.1235C136.751 65.172 137.96 65.2192 139.133 65.2752C146.053 65.6058 151.594 66.2443 155.45 69.1873C159.286 72.1149 161.528 77.3904 161.641 87.1986L162.23 87.2125C162.117 77.3552 159.866 71.8573 155.812 68.7629C151.778 65.6839 146.033 65.0518 139.142 64.7226C137.967 64.6665 136.757 64.6192 135.513 64.5705C122.115 64.0467 104.821 63.3704 86.2025 49.9039C78.2056 44.1197 73.4659 38.3466 71.0478 32.7434C68.6309 27.1428 68.5238 21.6899 69.8314 16.5286C72.0381 7.81837 78.2701 -0.0503893 84.2228 -6.34762L84.2173 -6.31748C84.0656 -5.98496 83.9188 -5.6508 83.7771 -5.31503C79.6706 -0.207658 76.0404 5.6107 74.4537 11.8737C73.1221 17.1295 73.2283 22.7023 75.6986 28.4266C78.1678 34.1483 82.9894 39.9993 91.0495 45.8292C109.827 59.4108 127.298 60.0921 140.701 60.6149C141.946 60.6634 143.156 60.7106 144.328 60.7666C151.248 61.0972 156.79 61.7357 160.646 64.6787C164.481 67.6063 166.724 72.8818 166.837 82.69L167.426 82.7039C167.312 72.8465 165.061 67.3487 161.007 64.2543C156.973 61.1753 151.229 60.5432 144.337 60.2139C143.163 60.1578 141.953 60.1105 140.709 60.0619C127.311 59.538 110.016 58.8618 91.3981 45.3953C83.4012 39.6111 78.6615 33.838 76.2434 28.2347C73.8265 22.6342 73.7194 17.1812 75.027 12.02C76.3256 6.89428 79.0181 2.05999 82.2273 -2.33413C80.732 0.396694 79.5273 3.25466 78.7781 6.21176C77.4465 11.4676 77.5527 17.0404 80.023 22.7647C82.4922 28.4864 87.3138 34.3374 95.3739 40.1673C114.151 53.7489 131.622 54.4302 145.026 54.9529L145.027 54.953L145.027 54.953L145.032 54.9532L145.035 54.9533C146.277 55.0017 147.483 55.0488 148.653 55.1047C155.573 55.4353 161.114 56.0738 164.97 59.0168C168.806 61.9444 171.048 67.2199 171.161 77.0281L171.75 77.042C171.637 67.1847 169.386 61.6868 165.332 58.5924C161.298 55.5134 155.553 54.8813 148.662 54.552C147.487 54.4959 146.277 54.4486 145.033 54.4C131.635 53.8761 114.341 53.1999 95.7225 39.7334C87.7256 33.9492 82.9859 28.1761 80.5678 22.5728C78.1509 16.9723 78.0438 11.5193 79.3514 6.35808C80.0273 3.69005 81.0809 1.10098 82.3885 -1.38816C82.3095 -1.10983 82.2344 -0.830593 82.1635 -0.550465C80.8319 4.70541 80.9381 10.2781 83.4084 16.0025C85.8776 21.7242 90.6992 27.5752 98.7592 33.4051C117.536 46.9867 135.007 47.668 148.411 48.1907L148.413 48.1908C149.657 48.2393 150.866 48.2865 152.038 48.3424C158.958 48.6731 164.5 49.3116 168.356 52.2546C172.191 55.1822 174.434 60.4577 174.547 70.2658L175.136 70.2797C175.022 60.4224 172.771 54.9246 168.717 51.8301C164.683 48.7512 158.939 48.1191 152.047 47.7898C150.872 47.7337 149.662 47.6864 148.419 47.6378C135.021 47.1139 117.726 46.4377 99.1079 32.9711C91.111 27.187 86.3712 21.4138 83.9532 15.8106C81.5362 10.21 81.4292 4.75711 82.7368 -0.404156C83.0492 -1.63735 83.4423 -2.85368 83.9039 -4.05107C83.526 -0.0612955 84.0622 4.07715 85.8837 8.29803C88.3529 14.0197 93.1744 19.8707 101.234 25.7006C120.012 39.2822 137.483 39.9635 150.887 40.4863C152.131 40.5348 153.341 40.582 154.513 40.638C161.434 40.9686 166.975 41.6071 170.831 44.5501C174.666 47.4777 176.909 52.7532 177.022 62.5614L177.611 62.5753C177.497 52.718 175.246 47.2201 171.192 44.1257C167.158 41.0467 161.414 40.4146 154.522 40.0853C153.348 40.0292 152.138 39.9819 150.894 39.9333C137.496 39.4094 120.201 38.7332 101.583 25.2667C93.5863 19.4825 88.8465 13.7094 86.4284 8.10615C84.458 3.5401 84.0228 -0.927827 84.6379 -5.21957C84.8886 -5.60683 85.1444 -5.99115 85.4046 -6.37245C85.5 -6.4859 85.5956 -6.599 85.6914 -6.71171C85.9934 -4.55495 86.595 -2.36604 87.5494 -0.154496C90.0186 5.56719 94.8401 11.4182 102.9 17.2481C121.677 30.8297 139.148 31.511 152.552 32.0337C153.797 32.0823 155.007 32.1294 156.179 32.1855C163.099 32.5161 168.641 33.1546 172.497 36.0976C176.332 39.0252 178.575 44.3007 178.688 54.1088L179.277 54.1228C179.163 44.2654 176.912 38.7676 172.858 35.6731C168.824 32.5942 163.08 31.9621 156.188 31.6328C155.013 31.5767 153.803 31.5294 152.56 31.4808C139.162 30.9569 121.867 30.2807 103.249 16.8142C95.2519 11.03 90.5122 5.25685 88.0941 -0.346367C87.0795 -2.69751 86.4719 -5.02263 86.2052 -7.31108C86.9055 -8.12094 87.6128 -8.91061 88.3199 -9.67886C88.3881 -9.51174 88.4583 -9.34449 88.5305 -9.17711C90.9997 -3.45543 95.8213 2.39558 103.881 8.22546C122.658 21.8071 140.13 22.4884 153.533 23.0111L153.536 23.0112L153.539 23.0113L153.544 23.0115L153.549 23.0117C154.789 23.0601 155.993 23.1071 157.16 23.1628C164.08 23.4935 169.622 24.132 173.478 27.075C177.313 30.0025 179.556 35.2781 179.669 45.0862L180.258 45.1001C180.144 35.2428 177.893 29.745 173.839 26.6505C169.805 23.5716 164.061 22.9395 157.169 22.6102C155.995 22.5541 154.784 22.5068 153.541 22.4582C140.143 21.9343 122.848 21.258 104.23 7.79154C96.2331 2.00735 91.4934 -3.76577 89.0753 -9.36899C88.9632 -9.62885 88.856 -9.8884 88.7537 -10.1476C89.8039 -11.2763 90.8505 -12.3571 91.8699 -13.3861C94.641 -9.35593 98.6838 -5.28522 104.298 -1.22476C123.075 12.3568 140.546 13.0382 153.95 13.5609C155.194 13.6094 156.404 13.6566 157.576 13.7126C164.497 14.0432 170.038 14.6817 173.894 17.6248C177.729 20.5523 179.972 25.8278 180.085 35.636L180.674 35.6499C180.56 25.7926 178.309 20.2947 174.255 17.2003C170.221 14.1213 164.477 13.4892 157.585 13.16C156.411 13.1039 155.201 13.0566 153.957 13.0079C140.559 12.4841 123.264 11.8078 104.646 -1.65868C99.0195 -5.72854 95.0052 -9.79291 92.2777 -13.7965L92.4625 -13.9816L92.7037 -14.2227L92.2682 -14.6096C92.1618 -14.5036 92.0551 -14.3969 91.948 -14.2896C91.9115 -14.3453 91.8753 -14.4009 91.8393 -14.4565C93.5898 -16.4008 95.3557 -18.2163 97.0281 -19.8846L96.5926 -20.2715C94.9606 -18.6436 93.2335 -16.8699 91.5148 -14.9682C91.2954 -15.3213 91.0859 -15.6739 90.886 -16.0259C93.9242 -19.9899 97.328 -23.5689 100.413 -26.6468L99.9779 -27.0338C96.9512 -24.0145 93.5969 -20.4939 90.5765 -16.5845C90.2512 -17.1868 89.9537 -17.7873 89.6829 -18.386C93.3988 -24.5082 98.4701 -29.9435 102.889 -34.3513L102.453 -34.7382C98.126 -30.4217 93.1294 -25.0806 89.3959 -19.0434C89.063 -19.8345 88.776 -20.6226 88.5323 -21.4073C92.1007 -29.7572 98.868 -37.1313 104.554 -42.8038L104.119 -43.1908C98.5853 -37.6708 91.9573 -30.4756 88.2755 -22.2918C88.0327 -23.1906 87.8458 -24.0846 87.7112 -24.9733C87.7582 -25.1772 87.8075 -25.3807 87.8589 -25.5838C90.4787 -35.9245 98.7718 -45.0792 105.536 -51.8264L105.1 -52.2134C98.5276 -45.6571 90.4111 -36.7373 87.5213 -26.6051C87.2865 -29.4823 87.5822 -32.2991 88.2751 -35.034C90.8949 -45.3747 99.188 -54.5295 105.952 -61.2766L105.516 -61.6636ZM85.5647 -7.74698C85.4942 -7.60943 85.4246 -7.47159 85.3558 -7.33344C85.4297 -7.43885 85.504 -7.54402 85.5786 -7.64894L85.5685 -7.75098L85.5647 -7.74698ZM87.2707 -9.92497C87.483 -10.1989 87.697 -10.4708 87.9124 -10.7408C87.8292 -10.9725 87.7497 -11.204 87.6739 -11.4351C87.2915 -10.8286 86.9217 -10.215 86.5667 -9.59472C86.7362 -9.76501 86.9049 -9.93378 87.0725 -10.101L87.2707 -9.92497ZM91.538 -13.8777C90.9266 -13.2615 90.3043 -12.6259 89.6763 -11.9717C90.2606 -12.6678 90.8519 -13.3499 91.446 -14.0173L91.5061 -13.9259L91.538 -13.8777ZM91.1183 -14.527C90.9072 -14.8623 90.7046 -15.1972 90.5106 -15.5317C89.6645 -14.4074 88.8496 -13.2529 88.0811 -12.0709C88.1623 -11.8049 88.2485 -11.5385 88.3397 -11.2718C89.2498 -12.3927 90.1816 -13.4787 91.1183 -14.527ZM85.4106 -8.72318L85.337 -8.58513C85.3821 -8.75165 85.4287 -8.91787 85.4767 -9.08376C85.4797 -9.01082 85.4831 -8.93784 85.4868 -8.86482L85.4106 -8.72318ZM87.4452 -12.1699C86.9585 -11.4142 86.4906 -10.6471 86.0455 -9.86921C86.0424 -10.2092 86.0465 -10.5483 86.0575 -10.8864C86.3678 -11.7614 86.7157 -12.6268 87.0966 -13.4816C87.1999 -13.0455 87.3159 -12.6083 87.4452 -12.1699ZM90.1959 -16.0873C89.3888 -15.0237 88.6081 -13.932 87.8666 -12.8146C87.7264 -13.3312 87.6047 -13.8462 87.5008 -14.3595C88.0541 -15.5233 88.6663 -16.6668 89.3255 -17.7879C89.592 -17.2222 89.8819 -16.6553 90.1959 -16.0873ZM89.0284 -18.44C89.0009 -18.5025 88.9737 -18.5649 88.9467 -18.6273C88.6646 -19.281 88.4134 -19.9327 88.1915 -20.5822C87.7682 -19.5203 87.3981 -18.4432 87.0898 -17.3524C87.1386 -16.6852 87.2159 -16.0147 87.3233 -15.3412C87.8488 -16.3921 88.4201 -17.4256 89.0284 -18.44ZM86.8885 -14.445C86.806 -14.8682 86.7352 -15.2902 86.6758 -15.711C86.4708 -14.7853 86.3123 -13.8506 86.2054 -12.9076C86.4213 -13.4239 86.6494 -13.9364 86.8885 -14.445ZM87.9108 -21.4547C87.5881 -20.6891 87.292 -19.9152 87.0257 -19.1335C87.027 -20.5832 87.1577 -22.0159 87.4004 -23.4288C87.5415 -22.7733 87.7111 -22.1152 87.9108 -21.4547ZM63.3472 19.8256C66.0057 9.3321 74.4006 0.0867039 81.1616 -6.65766L81.5972 -6.27068C74.8334 0.476476 66.5403 9.63121 63.9205 19.9719C62.6129 25.1332 62.72 30.5862 65.1369 36.1867C67.555 41.7899 72.2947 47.5631 80.2916 53.3473C98.9096 66.8138 116.204 67.49 129.602 68.0139C130.846 68.0625 132.056 68.1098 133.231 68.1659C140.122 68.4952 145.867 69.1273 149.901 72.2062C153.955 75.3007 156.206 80.7985 156.319 90.6558L155.731 90.6419C155.617 80.8338 153.375 75.5583 149.539 72.6307C145.684 69.6877 140.142 69.0492 133.222 68.7186C132.049 68.6625 130.84 68.6154 129.595 68.5668C116.191 68.0441 98.7201 67.3628 79.9429 53.7812C71.8829 47.9513 67.0613 42.1003 64.5921 36.3786C62.1218 30.6543 62.0156 25.0815 63.3472 19.8256ZM74.726 -4.08044C67.965 2.66393 59.5701 11.9093 56.9116 22.4029C55.58 27.6587 55.6861 33.2315 58.1565 38.9558C60.6257 44.6775 65.4473 50.5285 73.5073 56.3584C92.2844 69.94 109.755 70.6213 123.159 71.144L123.159 71.144C124.404 71.1926 125.614 71.2398 126.786 71.2958C133.706 71.6264 139.248 72.2649 143.104 75.2079C146.939 78.1355 149.182 83.411 149.295 93.2192L149.884 93.2331C149.77 83.3758 147.519 77.8779 143.465 74.7835C139.431 71.7045 133.687 71.0724 126.795 70.7432C125.621 70.687 124.41 70.6397 123.167 70.5911C109.769 70.0672 92.474 69.391 73.856 55.9245C65.8591 50.1403 61.1193 44.3672 58.7012 38.764C56.2843 33.1634 56.1772 27.7104 57.4848 22.5492C60.1047 12.2084 68.3978 3.05371 75.1616 -3.69345L74.726 -4.08044ZM50.1271 24.3578C52.7856 13.8642 61.1805 4.61884 67.9415 -2.12553L68.3771 -1.73854C61.6133 5.00862 53.3202 14.1633 50.7003 24.5041C49.3927 29.6654 49.4998 35.1183 51.9168 40.7189C54.3348 46.3221 59.0746 52.0952 67.0715 57.8794C85.6895 71.3459 102.984 72.0221 116.382 72.546C117.626 72.5946 118.836 72.642 120.01 72.6981C126.902 73.0273 132.647 73.6594 136.681 76.7384C140.735 79.8328 142.986 85.3307 143.099 95.188L142.51 95.1741C142.397 85.3659 140.155 80.0904 136.319 77.1628C132.463 74.2198 126.922 73.5813 120.002 73.2507C118.829 73.1947 117.62 73.1475 116.375 73.099C102.971 72.5762 85.4999 71.8949 66.7228 58.3133C58.6628 52.4834 53.8412 46.6324 51.372 40.9107C48.9017 35.1864 48.7955 29.6137 50.1271 24.3578ZM60.9522 -0.557824C54.1912 6.18655 45.7963 15.4319 43.1378 25.9255C41.8062 31.1814 41.9124 36.7541 44.3827 42.4784C46.8519 48.2001 51.6735 54.0511 59.7335 59.881C78.5107 73.4626 95.9818 74.1439 109.386 74.6667C110.63 74.7152 111.84 74.7624 113.012 74.8184C119.933 75.149 125.474 75.7875 129.33 78.7305C133.165 81.6581 135.408 86.9336 135.521 96.7418L136.11 96.7557C135.996 86.8984 133.745 81.4005 129.691 78.3061C125.657 75.2271 119.913 74.595 113.021 74.2658C111.847 74.2097 110.637 74.1623 109.393 74.1137C95.995 73.5898 78.7002 72.9136 60.0822 59.4471C52.0853 53.6629 47.3456 47.8898 44.9275 42.2866C42.5106 36.686 42.4035 31.2331 43.7111 26.0718C46.3309 15.731 54.624 6.57632 61.3878 -0.170842L60.9522 -0.557824ZM36.0513 27.304C38.7099 16.8105 47.1048 7.56506 53.8658 0.82069L54.3013 1.20767C47.5376 7.95483 39.2444 17.1096 36.6246 27.4503C35.317 32.6116 35.4241 38.0645 37.841 43.6651C40.2591 49.2683 44.9988 55.0414 52.9957 60.8256C71.6138 74.2921 88.9086 74.9684 102.307 75.4922C103.55 75.5408 104.76 75.5882 105.935 75.6443C112.827 75.9735 118.571 76.6056 122.605 79.6846C126.659 82.779 128.91 88.2769 129.024 98.1342L128.435 98.1203C128.322 88.3121 126.079 83.0366 122.243 80.109C118.388 77.166 112.846 76.5275 105.926 76.1969C104.754 76.1409 103.544 76.0937 102.299 76.0452C88.8953 75.5225 71.4242 74.8411 52.6471 61.2595C44.587 55.4297 39.7655 49.5786 37.2963 43.8569C34.8259 38.1326 34.7198 32.5599 36.0513 27.304ZM46.7642 2.16744C40.0032 8.91181 31.6083 18.1572 28.9498 28.6507C27.6182 33.9066 27.7243 39.4794 30.1947 45.2037C32.6639 50.9254 37.4854 56.7764 45.5455 62.6063C64.3226 76.1879 81.7937 76.8692 95.1975 77.3919C96.4423 77.4405 97.652 77.4876 98.8244 77.5437C105.744 77.8743 111.286 78.5128 115.142 81.4558C118.977 84.3834 121.22 89.6589 121.333 99.467L121.922 99.481C121.808 89.6236 119.557 84.1258 115.503 81.0313C111.469 77.9524 105.725 77.3203 98.8332 76.991C97.6587 76.9349 96.4486 76.8876 95.2049 76.839C81.807 76.3151 64.5122 75.6389 45.8941 62.1724C37.8972 56.3882 33.1575 50.615 30.7394 45.0118C28.3225 39.4113 28.2154 33.9583 29.523 28.7971C32.1428 18.4563 40.436 9.30158 47.1997 2.55442L46.7642 2.16744ZM21.8908 30.0839C24.5493 19.5903 32.9442 10.3449 39.7052 3.60056L40.1408 3.98754C33.377 10.7347 25.0839 19.8894 22.4641 30.2302C21.1565 35.3914 21.2636 40.8444 23.6805 46.4449C26.0986 52.0482 30.8383 57.8213 38.8352 63.6055C57.4532 77.072 74.748 77.7482 88.146 78.2721C89.3896 78.3207 90.5998 78.368 91.7742 78.4241C98.666 78.7534 104.41 79.3855 108.444 82.4645C112.498 85.5589 114.749 91.0567 114.863 100.914L114.274 100.9C114.161 91.092 111.918 85.8165 108.083 82.8889C104.227 79.9459 98.6855 79.3074 91.7655 78.9768C90.593 78.9208 89.3833 78.8736 88.1386 78.825C74.7348 78.3023 57.2637 77.621 38.4865 64.0394C30.4265 58.2095 25.6049 52.3585 23.1357 46.6368C20.6654 40.9125 20.5592 35.3397 21.8908 30.0839ZM32.7359 5.20677C25.9749 11.9511 17.58 21.1965 14.9214 31.6901C13.5899 36.9459 13.696 42.5187 16.1664 48.243C18.6356 53.9647 23.4571 59.8157 31.5172 65.6456C50.2943 79.2272 67.7654 79.9085 81.1691 80.4313L81.1692 80.4313C82.414 80.4798 83.6237 80.527 84.7961 80.583C91.7162 80.9136 97.2578 81.5521 101.114 84.4951C104.949 87.4227 107.192 92.6982 107.305 102.506L107.894 102.52C107.78 92.663 105.529 87.1651 101.475 84.0707C97.441 80.9917 91.6966 80.3596 84.8049 80.0304C83.6304 79.9742 82.4203 79.9269 81.1766 79.8783C67.7787 79.3544 50.4838 78.6782 31.8658 65.2117C23.8689 59.4275 19.1292 53.6544 16.7111 48.0512C14.2942 42.4506 14.1871 36.9976 15.4947 31.8364C18.1145 21.4956 26.4076 12.3409 33.1714 5.59375L32.7359 5.20677ZM8.07532 33.5294C10.7338 23.0359 19.1288 13.7905 25.8898 7.04612L26.3253 7.4331C19.5615 14.1803 11.2684 23.335 8.64859 33.6757C7.34099 38.837 7.44807 44.2899 9.865 49.8905C12.2831 55.4937 17.0228 61.2668 25.0197 67.051C43.6377 80.5175 60.9326 81.1938 74.3305 81.7177C75.5742 81.7663 76.7843 81.8136 77.9587 81.8697C84.8505 82.199 90.5949 82.831 94.6288 85.91C98.683 89.0044 100.934 94.5023 101.048 104.36L100.459 104.346C100.346 94.5376 98.103 89.262 94.2674 86.3345C90.4116 83.3915 84.8701 82.753 77.95 82.4223C76.7776 82.3663 75.5679 82.3191 74.3231 82.2706L74.3231 82.2706C60.9193 81.7479 43.4482 81.0665 24.6711 67.485C16.611 61.6551 11.7894 55.8041 9.32024 50.0824C6.8499 44.358 6.74374 38.7853 8.07532 33.5294ZM19.1911 9.15854C12.4301 15.9029 4.03515 25.1483 1.37661 35.6418C0.0450407 40.8977 0.1512 46.4705 2.62154 52.1948C5.09074 57.9165 9.9123 63.7675 17.9724 69.5974C36.7495 83.1789 54.2205 83.8603 67.6243 84.383L67.6244 84.383L67.6244 84.383C68.8692 84.4316 70.0789 84.4787 71.2513 84.5348C78.1714 84.8654 83.7129 85.5039 87.5687 88.4469C91.4043 91.3745 93.6468 96.65 93.7599 106.458L94.3489 106.472C94.2352 96.6147 91.9843 91.1169 87.9301 88.0224C83.8962 84.9435 78.1518 84.3114 71.26 83.9821C70.0856 83.926 68.8755 83.8787 67.6318 83.8301C54.2338 83.3062 36.939 82.63 18.321 69.1635C10.3241 63.3793 5.58437 57.6061 3.1663 52.0029C0.749367 46.4023 0.642286 40.9494 1.94989 35.7881C4.56971 25.4474 12.8628 16.2927 19.6266 9.54552L19.1911 9.15854Z" fill="url(#paint0_radial_1_73)" fill-opacity="0.58"/>
<defs>
<radialGradient id="paint0_radial_1_73" cx="0" cy="0" r="1" gradientUnits="userSpaceOnUse" gradientTransform="translate(78.9813 40.6409) rotate(44.6554) scale(82.2368 83.1472)">
<stop stop-color="white"/>
<stop offset="1" stop-color="#1E1E1E" stop-opacity="0"/>
<stop offset="1" stop-color="#0E0E35" stop-opacity="0"/>
<stop offset="1" stop-color="white" stop-opacity="0"/>
</radialGradient>
</defs>
</svg>
